<svg width="18" height="18" viewBox="0 0 18 18" fill="none" xmlns="http://www.w3.org/2000/svg">
<path d="M2.51854 7.61095C1.49579 7.61095 0.666687 6.78185 0.666687 5.7591V2.51836C0.666687 1.49561 1.49579 0.666504 2.51854 0.666504H5.75928C6.78203 0.666504 7.61113 1.49561 7.61113 2.51836V5.7591C7.61113 6.78185 6.78203 7.61095 5.75928 7.61095H2.51854ZM2.51854 17.3332C1.49579 17.3332 0.666687 16.5041 0.666687 15.4813V12.2406C0.666687 11.2178 1.49579 10.3887 2.51854 10.3887H5.75928C6.78203 10.3887 7.61113 11.2178 7.61113 12.2406V15.4813C7.61113 16.5041 6.78203 17.3332 5.75928 17.3332H2.51854ZM12.2408 7.61095C11.218 7.61095 10.3889 6.78185 10.3889 5.7591V2.51836C10.3889 1.49561 11.218 0.666504 12.2408 0.666504H15.4815C16.5043 0.666504 17.3334 1.49561 17.3334 2.51836V5.7591C17.3334 6.78185 16.5043 7.61095 15.4815 7.61095H12.2408ZM12.2408 17.3332C11.218 17.3332 10.3889 16.5041 10.3889 15.4813V12.2406C10.3889 11.2178 11.218 10.3887 12.2408 10.3887H15.4815C16.5043 10.3887 17.3334 11.2178 17.3334 12.2406V15.4813C17.3334 16.5041 16.5043 17.3332 15.4815 17.3332H12.2408Z" fill="#1C1C1C"/>
</svg>
