<svg width="17" height="17" viewBox="0 0 17 17" fill="none" xmlns="http://www.w3.org/2000/svg">
<mask id="path-1-inside-1_6801_14601" fill="white">
<path d="M5.28018 2.70533C6.2855 2.13341 7.42231 1.83289 8.57893 1.83328C9.60152 1.83362 10.6103 2.0692 11.5273 2.5218C12.4443 2.97439 13.2449 3.63187 13.8671 4.44337C14.4894 5.25487 14.9166 6.19863 15.1157 7.20165C15.3149 8.20467 15.2806 9.24006 15.0156 10.2277C14.7506 11.2154 14.2619 12.1288 13.5874 12.8974C12.9128 13.666 12.0705 14.2691 11.1256 14.6601C10.1807 15.0511 9.15855 15.2194 8.13816 15.1522C7.11778 15.0849 6.12655 14.7838 5.24115 14.2722L2.64337 15.1377C2.54746 15.1695 2.4447 15.1745 2.34615 15.1522C2.2476 15.13 2.15699 15.0812 2.08407 15.0113C2.01116 14.9413 1.9587 14.8528 1.93234 14.7553C1.90598 14.6578 1.90672 14.5549 1.93448 14.4577L2.72337 11.6911C2.16974 10.6756 1.88983 9.53349 1.91115 8.37707C1.93246 7.22066 2.25427 6.08969 2.84495 5.09528C3.43563 4.10087 4.27486 3.27725 5.28018 2.70533Z"/>
</mask>
<path d="M8.57893 1.83328L8.57842 3.33328H8.57842L8.57893 1.83328ZM2.84495 5.09528L1.55531 4.32923H1.55531L2.84495 5.09528ZM1.91115 8.37707L0.411401 8.34943L1.91115 8.37707ZM2.72337 11.6911L4.16587 12.1024L4.3342 11.512L4.04036 10.9731L2.72337 11.6911ZM1.93448 14.4577L3.37676 14.8698L3.37698 14.869L1.93448 14.4577ZM1.93234 14.7553L3.3804 14.364L3.3804 14.364L1.93234 14.7553ZM2.08407 15.0113L3.12245 13.9288L3.12244 13.9288L2.08407 15.0113ZM2.34615 15.1522L2.01537 16.6153H2.01537L2.34615 15.1522ZM2.64337 15.1377L3.11509 16.5616L3.11753 16.5608L2.64337 15.1377ZM5.24115 14.2722L5.99165 12.9734L5.40729 12.6357L4.76699 12.8491L5.24115 14.2722ZM8.13816 15.1522L8.23683 13.6554H8.23683L8.13816 15.1522ZM13.5874 12.8974L14.7148 13.8868L14.7148 13.8868L13.5874 12.8974ZM15.1157 7.20165L16.587 6.90953V6.90953L15.1157 7.20165ZM13.8671 4.44337L15.0575 3.53064V3.53064L13.8671 4.44337ZM11.5273 2.5218L10.8634 3.86688L10.8634 3.86688L11.5273 2.5218ZM8.57943 0.333278C7.16258 0.332801 5.76998 0.700946 4.53847 1.40154L6.02189 4.00912C6.80101 3.56588 7.68205 3.33298 8.57842 3.33328L8.57943 0.333278ZM4.53847 1.40154C3.30696 2.10214 2.2789 3.11108 1.55531 4.32923L4.13459 5.86133C4.59237 5.09066 5.24277 4.45235 6.02189 4.00912L4.53847 1.40154ZM1.55531 4.32923C0.831731 5.54738 0.437514 6.93282 0.411401 8.34943L3.41089 8.40472C3.42741 7.5085 3.67681 6.63199 4.13459 5.86133L1.55531 4.32923ZM0.411401 8.34943C0.385287 9.76604 0.728176 11.1651 1.40637 12.4091L4.04036 10.9731C3.6113 10.186 3.39437 9.30094 3.41089 8.40472L0.411401 8.34943ZM1.28086 11.2797L0.491976 14.0464L3.37698 14.869L4.16587 12.1024L1.28086 11.2797ZM0.4922 14.0456C0.389494 14.4051 0.386757 14.7857 0.484287 15.1466L3.3804 14.364C3.42521 14.5298 3.42395 14.7047 3.37676 14.8698L0.4922 14.0456ZM0.484286 15.1466C0.581816 15.5075 0.775919 15.835 1.04571 16.0938L3.12244 13.9288C3.2464 14.0477 3.33559 14.1981 3.3804 14.364L0.484286 15.1466ZM1.0457 16.0938C1.31548 16.3525 1.65073 16.5329 2.01537 16.6153L2.67693 13.6892C2.84446 13.727 2.9985 13.8099 3.12245 13.9288L1.0457 16.0938ZM2.01537 16.6153C2.38001 16.6977 2.76022 16.6792 3.11509 16.5616L2.17164 13.7138C2.33469 13.6598 2.50939 13.6513 2.67693 13.6892L2.01537 16.6153ZM3.11753 16.5608L5.71531 15.6953L4.76699 12.8491L2.16921 13.7146L3.11753 16.5608ZM4.49065 15.5709C5.57526 16.1977 6.78952 16.5665 8.03949 16.6489L8.23683 13.6554C7.44604 13.6033 6.67783 13.3699 5.99165 12.9734L4.49065 15.5709ZM8.03949 16.6489C9.28946 16.7313 10.5416 16.5251 11.6991 16.0461L10.5521 13.2741C9.81982 13.5771 9.02763 13.7076 8.23683 13.6554L8.03949 16.6489ZM11.6991 16.0461C12.8566 15.5672 13.8885 14.8284 14.7148 13.8868L12.46 11.908C11.9372 12.5036 11.2844 12.971 10.5521 13.2741L11.6991 16.0461ZM14.7148 13.8868C15.541 12.9453 16.1397 11.8264 16.4643 10.6165L13.5668 9.83897C13.3614 10.6044 12.9827 11.3123 12.46 11.908L14.7148 13.8868ZM16.4643 10.6165C16.789 9.40658 16.831 8.13823 16.587 6.90953L13.6444 7.49376C13.7988 8.27111 13.7722 9.07353 13.5668 9.83897L16.4643 10.6165ZM16.587 6.90953C16.3431 5.68083 15.8197 4.52472 15.0575 3.53064L12.6768 5.3561C13.159 5.98501 13.4901 6.71642 13.6444 7.49377L16.587 6.90953ZM15.0575 3.53064C14.2952 2.53655 13.3145 1.73114 12.1912 1.17671L10.8634 3.86688C11.5741 4.21764 12.1945 4.72719 12.6768 5.3561L15.0575 3.53064ZM12.1912 1.17671C11.0679 0.622283 9.83211 0.333696 8.57943 0.333278L8.57842 3.33328C9.37094 3.33354 10.1528 3.51612 10.8634 3.86688L12.1912 1.17671Z" fill="#1C1C1C" mask="url(#path-1-inside-1_6801_14601)"/>
</svg>
