<svg width="20" height="20" viewBox="0 0 20 20" fill="none" xmlns="http://www.w3.org/2000/svg">
<g clip-path="url(#clip0_6541_8771)">
<path d="M5.625 2.5C4.7962 2.5 4.00134 2.82924 3.41529 3.41529C2.82924 4.00134 2.5 4.7962 2.5 5.625V14.375C2.5 15.2038 2.82924 15.9987 3.41529 16.5847C4.00134 17.1708 4.7962 17.5 5.625 17.5H7.77625L8.04125 16.4437C8.05743 16.3787 8.07536 16.3141 8.095 16.25H5.625C5.12772 16.25 4.65081 16.0525 4.29918 15.7008C3.94754 15.3492 3.75 14.8723 3.75 14.375V7.5H17.5V5.625C17.5 4.7962 17.1708 4.00134 16.5847 3.41529C15.9987 2.82924 15.2038 2.5 14.375 2.5H5.625ZM9.975 15.4712L16.0125 9.43375C16.4511 8.99548 17.0458 8.74939 17.6659 8.74963C18.2859 8.74986 18.8805 8.9964 19.3188 9.435C19.757 9.8736 20.0031 10.4683 20.0029 11.0884C20.0026 11.7084 19.7561 12.303 19.3175 12.7413L13.28 18.7775C12.9282 19.1292 12.4875 19.3789 12.005 19.5L10.1325 19.9675C9.94631 20.0139 9.75128 20.0114 9.56637 19.9601C9.38145 19.9089 9.21294 19.8107 9.07719 19.675C8.94145 19.5394 8.84309 19.371 8.79167 19.1861C8.74025 19.0013 8.73752 18.8062 8.78375 18.62L9.2525 16.7475C9.37357 16.265 9.62327 15.8243 9.975 15.4725" fill="#9C9C9C"/>
</g>
<defs>
<clipPath id="clip0_6541_8771">
<rect width="20" height="20" fill="white"/>
</clipPath>
</defs>
</svg>
