<svg width="24" height="24" viewBox="0 0 24 24" fill="none" xmlns="http://www.w3.org/2000/svg">
<path fill-rule="evenodd" clip-rule="evenodd" d="M11.6555 6.75C11.3225 8.04392 10.1479 9 8.75 9C7.35212 9 6.17755 8.04392 5.84451 6.75H2.75C2.33579 6.75 2 6.41421 2 6C2 5.58579 2.33579 5.25 2.75 5.25H5.84451C6.17755 3.95608 7.35212 3 8.75 3C10.1479 3 11.3225 3.95608 11.6555 5.25H20.75C21.1642 5.25 21.5 5.58579 21.5 6C21.5 6.41421 21.1642 6.75 20.75 6.75H11.6555ZM11.8445 12.75C12.1775 14.0439 13.3521 15 14.75 15C16.1479 15 17.3225 14.0439 17.6555 12.75H20.75C21.1642 12.75 21.5 12.4142 21.5 12C21.5 11.5858 21.1642 11.25 20.75 11.25H17.6555C17.3225 9.95608 16.1479 9 14.75 9C13.3521 9 12.1775 9.95608 11.8445 11.25H2.75C2.33579 11.25 2 11.5858 2 12C2 12.4142 2.33579 12.75 2.75 12.75H11.8445ZM8.75 21C10.1479 21 11.3225 20.0439 11.6555 18.75H20.75C21.1642 18.75 21.5 18.4142 21.5 18C21.5 17.5858 21.1642 17.25 20.75 17.25H11.6555C11.3225 15.9561 10.1479 15 8.75 15C7.35212 15 6.17755 15.9561 5.84451 17.25H2.75C2.33579 17.25 2 17.5858 2 18C2 18.4142 2.33579 18.75 2.75 18.75H5.84451C6.17755 20.0439 7.35212 21 8.75 21Z" fill="#FFC405"/>
</svg>
