<svg width="16" height="16" viewBox="0 0 16 16" fill="none" xmlns="http://www.w3.org/2000/svg">
<path d="M5.7515 14.8998C5.88194 14.8828 6.01445 14.8918 6.14143 14.9261C6.26841 14.9604 6.38737 15.0194 6.4915 15.0998L7.3915 15.7998C7.56636 15.9344 7.78084 16.0074 8.0015 16.0074C8.22217 16.0074 8.43665 15.9344 8.6115 15.7998L9.51151 15.0998C9.61564 15.0194 9.7346 14.9604 9.86158 14.9261C9.98856 14.8918 10.1211 14.8828 10.2515 14.8998L11.3715 15.0498C11.588 15.0782 11.8079 15.0349 11.9975 14.9265C12.1871 14.8182 12.336 14.6507 12.4215 14.4498L12.8615 13.3998C12.963 13.1555 13.1572 12.9613 13.4015 12.8598L14.4515 12.4198C14.6524 12.3343 14.8199 12.1854 14.9282 11.9958C15.0366 11.8062 15.0799 11.5863 15.0515 11.3698L14.9115 10.2498C14.8945 10.1194 14.9035 9.98686 14.9378 9.85988C14.9721 9.7329 15.0311 9.61394 15.1115 9.50981L15.7915 8.60981C15.9261 8.43495 15.9991 8.22047 15.9991 7.99981C15.9991 7.77914 15.9261 7.56466 15.7915 7.38981L15.1015 6.48981C15.0211 6.38567 14.9621 6.26671 14.9278 6.13973C14.8935 6.01275 14.8845 5.88024 14.9015 5.74981L15.0515 4.62981C15.0822 4.41171 15.04 4.18958 14.9315 3.99792C14.823 3.80625 14.6543 3.65576 14.4515 3.56981L13.4015 3.13981C13.1572 3.03833 12.963 2.84415 12.8615 2.59981L12.4215 1.54981C12.336 1.34887 12.1871 1.18144 11.9975 1.0731C11.8079 0.964755 11.588 0.921453 11.3715 0.949806L10.2515 1.08981C10.1201 1.10954 9.98616 1.1029 9.85739 1.07028C9.72861 1.03765 9.60763 0.979703 9.5015 0.899806L8.60151 0.219806C8.42665 0.0851974 8.21217 0.012207 7.9915 0.012207C7.77084 0.012207 7.55636 0.0851974 7.38151 0.219806L6.5015 0.899806C6.39737 0.980173 6.27841 1.03921 6.15143 1.07353C6.02445 1.10785 5.89194 1.11678 5.76151 1.09981L4.63151 0.939806C4.41498 0.911453 4.19513 0.954755 4.00553 1.0631C3.81593 1.17144 3.66701 1.33887 3.5815 1.53981L3.14151 2.59981C3.04003 2.84415 2.84585 3.03833 2.6015 3.13981L1.5515 3.56981C1.34872 3.65576 1.17999 3.80625 1.0715 3.99792C0.963008 4.18958 0.920827 4.41171 0.951505 4.62981L1.0915 5.74981C1.10848 5.88024 1.09954 6.01275 1.06523 6.13973C1.03091 6.26671 0.971872 6.38567 0.891505 6.48981L0.211505 7.38981C0.0768966 7.56466 0.00390625 7.77914 0.00390625 7.99981C0.00390625 8.22047 0.0768966 8.43495 0.211505 8.60981L0.901505 9.50981C0.981872 9.61394 1.04091 9.7329 1.07523 9.85988C1.10954 9.98686 1.11848 10.1194 1.1015 10.2498L0.951505 11.3698C0.923152 11.5863 0.966454 11.8062 1.0748 11.9958C1.18314 12.1854 1.35057 12.3343 1.5515 12.4198L2.6015 12.8598C2.8515 12.9598 3.04151 13.1598 3.14151 13.3998L3.5715 14.4398C3.65578 14.6444 3.80556 14.8153 3.99738 14.9257C4.1892 15.0361 4.41223 15.0798 4.63151 15.0498L5.7515 14.9098" fill="#F04438"/>
</svg>
