<svg width="20" height="20" viewBox="0 0 20 20" fill="none" xmlns="http://www.w3.org/2000/svg">
<path fill-rule="evenodd" clip-rule="evenodd" d="M8.75127 2.34357C8.91969 2.14151 9.1286 1.977 9.36451 1.86065C9.60042 1.7443 9.85811 1.67869 10.1209 1.66804C10.3838 1.6574 10.6459 1.70197 10.8905 1.79887C11.135 1.89577 11.3565 2.04286 11.5407 2.23063L11.6424 2.34357L15.3428 6.78374H18.152C18.3495 6.78332 18.5449 6.82463 18.7253 6.90495C18.9058 6.98528 19.0672 7.10281 19.199 7.24985C19.3309 7.3969 19.4302 7.57013 19.4904 7.75822C19.5507 7.94631 19.5705 8.145 19.5487 8.34128L19.4621 9.06217L19.368 9.7586L19.2908 10.28L19.2014 10.8399L19.0997 11.4281L18.9849 12.038L18.8569 12.6601C18.7892 12.9734 18.7167 13.2878 18.6386 13.6002C18.4302 14.4265 18.1687 15.2385 17.8556 16.0311L17.6476 16.5393L17.4462 16.9986L17.2561 17.407L17.1676 17.5896L16.9333 18.0507C16.6322 18.6248 16.0637 18.9636 15.4623 19.0126L15.3118 19.0182H5.07246C4.74342 19.0208 4.41988 18.9339 4.13642 18.7668C3.85296 18.5997 3.62025 18.3587 3.46315 18.0696L3.24482 17.6461L3.07542 17.2979C3.04525 17.2337 3.01545 17.1694 2.98601 17.1049L2.79779 16.6824C2.36812 15.6843 2.01941 14.6533 1.75503 13.5993C1.70397 13.3946 1.65503 13.1895 1.60822 12.9838L1.47458 12.374L1.35506 11.7773L1.24966 11.2004L1.15554 10.648L1.07367 10.1266L1.00403 9.64378L0.919325 9.001L0.857212 8.47774C0.851786 8.42976 0.846453 8.38176 0.841213 8.33375C0.821485 8.14882 0.838795 7.9618 0.892131 7.78363C0.945467 7.60545 1.03376 7.43968 1.15186 7.296C1.26996 7.15232 1.41549 7.03361 1.57997 6.94679C1.74445 6.85997 1.92458 6.80678 2.10983 6.79033L2.23782 6.78374H5.05081L8.75127 2.34357ZM8.27789 11.2277C8.21423 11.0056 8.07112 10.8147 7.87582 10.6914C7.68053 10.568 7.44668 10.5208 7.21881 10.5587C6.99095 10.5966 6.78498 10.717 6.64013 10.8969C6.49528 11.0769 6.42167 11.3038 6.43331 11.5345L6.44554 11.6436L6.9161 14.467L6.93963 14.5743C7.00329 14.7963 7.1464 14.9872 7.34169 15.1106C7.53699 15.2339 7.77084 15.2812 7.9987 15.2433C8.22657 15.2054 8.43253 15.085 8.57738 14.905C8.72223 14.7251 8.79585 14.4982 8.78421 14.2675L8.77197 14.1583L8.30142 11.335L8.27789 11.2277ZM13.1745 10.5614C12.947 10.5234 12.7136 10.5703 12.5184 10.6932C12.3232 10.816 12.1799 11.0062 12.1157 11.2277L12.0922 11.335L11.6217 14.1583C11.5824 14.3951 11.6351 14.6379 11.7689 14.8372C11.9028 15.0364 12.1077 15.177 12.3417 15.2301C12.5758 15.2832 12.8213 15.2449 13.0281 15.123C13.2348 15.0011 13.3872 14.8048 13.454 14.5743L13.4775 14.467L13.9481 11.6436C13.9889 11.3976 13.9304 11.1453 13.7853 10.9424C13.6402 10.7395 13.4206 10.6024 13.1745 10.5614ZM10.1968 3.54819L7.50053 6.78374H12.8931L10.1968 3.54819Z" fill="#1C1C1C"/>
</svg>
