<svg width="24" height="25" viewBox="0 0 24 25" fill="none" xmlns="http://www.w3.org/2000/svg">
<path d="M8.6253 22.35C8.82096 22.3246 9.01972 22.338 9.21019 22.3894C9.40066 22.4409 9.57911 22.5295 9.7353 22.65L11.0853 23.7C11.3476 23.9019 11.6693 24.0114 12.0003 24.0114C12.3313 24.0114 12.653 23.9019 12.9153 23.7L14.2653 22.65C14.4215 22.5295 14.5999 22.4409 14.7904 22.3894C14.9809 22.338 15.1796 22.3246 15.3753 22.35L17.0553 22.575C17.3801 22.6175 17.7099 22.5526 17.9943 22.3901C18.2787 22.2276 18.5021 21.9764 18.6303 21.675L19.2903 20.1C19.4425 19.7335 19.7338 19.4422 20.1003 19.29L21.6753 18.63C21.9767 18.5018 22.2279 18.2784 22.3904 17.994C22.5529 17.7096 22.6178 17.3798 22.5753 17.055L22.3653 15.375C22.3398 15.1794 22.3532 14.9806 22.4047 14.7901C22.4562 14.5997 22.5448 14.4212 22.6653 14.265L23.6853 12.915C23.8872 12.6527 23.9967 12.331 23.9967 12C23.9967 11.669 23.8872 11.3473 23.6853 11.085L22.6503 9.73501C22.5298 9.57882 22.4412 9.40037 22.3897 9.2099C22.3382 9.01943 22.3248 8.82067 22.3503 8.62501L22.5753 6.94501C22.6213 6.61787 22.5581 6.28468 22.3953 5.99718C22.2326 5.70968 21.9795 5.48394 21.6753 5.35501L20.1003 4.71001C19.7338 4.5578 19.4425 4.26654 19.2903 3.90001L18.6303 2.32501C18.5021 2.02361 18.2787 1.77247 17.9943 1.60995C17.7099 1.44744 17.3801 1.38248 17.0553 1.42501L15.3753 1.63501C15.1783 1.66461 14.9773 1.65465 14.7841 1.60572C14.591 1.55679 14.4095 1.46986 14.2503 1.35001L12.9003 0.330014C12.638 0.128101 12.3163 0.0186157 11.9853 0.0186157C11.6543 0.0186157 11.3326 0.128101 11.0703 0.330014L9.7503 1.35001C9.59411 1.47056 9.41566 1.55912 9.22519 1.61059C9.03472 1.66207 8.83596 1.67547 8.6403 1.65001L6.9453 1.41001C6.62052 1.36748 6.29074 1.43244 6.00634 1.59495C5.72194 1.75747 5.49855 2.00861 5.3703 2.31001L4.7103 3.90001C4.55809 4.26654 4.26683 4.5578 3.9003 4.71001L2.3253 5.35501C2.02113 5.48394 1.76803 5.70968 1.6053 5.99718C1.44256 6.28468 1.37929 6.61787 1.4253 6.94501L1.6353 8.62501C1.66076 8.82067 1.64736 9.01943 1.59589 9.2099C1.54441 9.40037 1.45586 9.57882 1.3353 9.73501L0.315304 11.085C0.113392 11.3473 0.00390625 11.669 0.00390625 12C0.00390625 12.331 0.113392 12.6527 0.315304 12.915L1.3503 14.265C1.47086 14.4212 1.55941 14.5997 1.61089 14.7901C1.66236 14.9806 1.67576 15.1794 1.6503 15.375L1.4253 17.055C1.38278 17.3798 1.44773 17.7096 1.61024 17.994C1.77276 18.2784 2.0239 18.5018 2.3253 18.63L3.9003 19.29C4.2753 19.44 4.5603 19.74 4.7103 20.1L5.3553 21.66C5.48172 21.967 5.70639 22.2233 5.99412 22.3889C6.28185 22.5545 6.61639 22.6199 6.9453 22.575L8.6253 22.365" fill="#F04438"/>
<path d="M15.7072 14.2928C15.8947 14.4804 16.0001 14.7347 16.0001 14.9998C16.0001 15.265 15.8947 15.5193 15.7072 15.7068C15.5197 15.8944 15.2654 15.9997 15.0002 15.9997C14.735 15.9997 14.4807 15.8944 14.2932 15.7068L12.0002 13.4138L9.7072 15.7068C9.61455 15.8 9.50439 15.874 9.38305 15.9244C9.26172 15.9749 9.13161 16.0009 9.0002 16.0009C8.86879 16.0009 8.73868 15.9749 8.61735 15.9244C8.49602 15.874 8.38585 15.8 8.2932 15.7068C8.20026 15.6141 8.12652 15.5039 8.07621 15.3825C8.0259 15.2612 8 15.1312 8 14.9998C8 14.8685 8.0259 14.7385 8.07621 14.6172C8.12652 14.4958 8.20026 14.3856 8.2932 14.2928L10.5862 11.9998L8.2932 9.70685C8.10569 9.51934 8.00035 9.26503 8.00035 8.99985C8.00035 8.73467 8.10569 8.48036 8.2932 8.29285C8.48071 8.10534 8.73502 8 9.0002 8C9.26538 8 9.51969 8.10534 9.7072 8.29285L12.0002 10.5858L14.2932 8.29285C14.4807 8.10534 14.735 8 15.0002 8C15.2654 8 15.5197 8.10534 15.7072 8.29285C15.8947 8.48036 16.0001 8.73467 16.0001 8.99985C16.0001 9.26503 15.8947 9.51934 15.7072 9.70685L13.4142 11.9998L15.7072 14.2928Z" fill="white"/>
</svg>
