<svg width="20" height="20" viewBox="0 0 20 20" fill="none" xmlns="http://www.w3.org/2000/svg">
<path d="M11.6673 10.6251C11.6673 9.81967 10.9211 9.16675 10.0007 9.16675C9.08018 9.16675 8.33398 9.81967 8.33398 10.6251C8.33398 11.4305 9.08018 12.0834 10.0007 12.0834C10.9211 12.0834 11.6673 12.7363 11.6673 13.5417C11.6673 14.3472 10.9211 15.0001 10.0007 15.0001C9.08018 15.0001 8.33398 14.3472 8.33398 13.5417" stroke="#1C1C1C" stroke-width="1.5" stroke-linecap="round"/>
<path d="M10 7.91675V9.16675" stroke="#1C1C1C" stroke-width="1.5" stroke-linecap="round" stroke-linejoin="round"/>
<path d="M10 15V16.25" stroke="#1C1C1C" stroke-width="1.5" stroke-linecap="round" stroke-linejoin="round"/>
<path d="M4.51507 9.7861C5.30193 7.4255 7.51106 5.83325 9.99935 5.83325V5.83325C12.4876 5.83325 14.6968 7.4255 15.4836 9.7861L15.7002 10.4359C16.9953 14.3211 14.0947 18.3333 9.99935 18.3333V18.3333C5.904 18.3333 3.00341 14.3211 4.29847 10.4359L4.51507 9.7861Z" stroke="#1C1C1C" stroke-width="1.5" stroke-linejoin="round"/>
<path d="M11.7376 5.83341L8.26111 5.83341L7.09354 4.49421C5.94901 3.18144 7.28422 1.21923 8.95524 1.75829L9.72838 2.0077C9.90441 2.06448 10.0943 2.06448 10.2703 2.0077L11.0435 1.75829C12.7145 1.21923 14.0497 3.18144 12.9052 4.49421L11.7376 5.83341Z" stroke="#1C1C1C" stroke-width="1.5" stroke-linejoin="round"/>
</svg>
