<svg width="162" height="96" viewBox="0 0 162 96" fill="none" xmlns="http://www.w3.org/2000/svg">
<rect x="0.5" y="0.5" width="161" height="43" rx="5.5" stroke="#1C1C1C"/>
<path d="M50.1819 22.6428C50.192 21.8644 50.3991 21.1013 50.7838 20.4246C51.1685 19.7479 51.7183 19.1796 52.3819 18.7728C51.9577 18.17 51.3988 17.6745 50.7495 17.3256C50.1003 16.9767 49.3786 16.784 48.6419 16.7628C47.0719 16.5928 45.5419 17.6928 44.7419 17.6928C43.9319 17.6928 42.6919 16.7728 41.3619 16.7928C40.5032 16.822 39.6666 17.072 38.9327 17.5187C38.1988 17.9653 37.5924 18.5936 37.1719 19.3428C35.3619 22.4728 36.7119 27.0628 38.4519 29.5828C39.3119 30.8228 40.3319 32.2028 41.6519 32.1528C42.9519 32.0928 43.4519 31.3228 45.0119 31.3228C46.5719 31.3228 47.0219 32.1528 48.3819 32.1228C49.7819 32.0928 50.6519 30.8828 51.4819 29.6228C52.1078 28.7444 52.5905 27.7723 52.9119 26.7428C52.106 26.4008 51.418 25.8303 50.9328 25.1016C50.4477 24.373 50.1866 23.5182 50.1819 22.6428ZM47.6219 15.1028C48.3814 14.1939 48.7548 13.0236 48.6619 11.8428C47.503 11.9653 46.4323 12.5184 45.6619 13.3928C45.2849 13.8178 44.9954 14.3131 44.8101 14.8502C44.6248 15.3873 44.5472 15.9557 44.5819 16.5228C45.1628 16.5301 45.7379 16.4062 46.2643 16.1604C46.7906 15.9145 47.2547 15.553 47.6219 15.1028ZM65.1574 26.4574H60.8874L59.8674 29.4674H58.0674L62.0974 18.3374H63.9774L68.0174 29.4674H66.1774L65.1574 26.4674V26.4574ZM61.3374 25.0674H64.7174L63.0474 20.1874H62.9974L61.3374 25.0674ZM76.7374 25.4074C76.7374 27.9374 75.3874 29.5574 73.3374 29.5574C72.8192 29.5842 72.3038 29.4653 71.8496 29.2144C71.3954 28.9634 71.0206 28.5904 70.7674 28.1374H70.7374V32.1574H69.0574V21.3574H70.6774V22.6974H70.7074C70.971 22.2463 71.352 21.8751 71.8099 21.6232C72.2677 21.3714 72.7852 21.2485 73.3074 21.2674C75.3774 21.2674 76.7474 22.8974 76.7474 25.4074H76.7374ZM75.0174 25.4074C75.0174 23.7674 74.1674 22.6874 72.8674 22.6874C71.5874 22.6874 70.7274 23.7874 70.7274 25.4074C70.7274 27.0474 71.5874 28.1474 72.8674 28.1474C74.1674 28.1474 75.0174 27.0674 75.0174 25.4074ZM85.7174 25.4074C85.7174 27.9374 84.3674 29.5574 82.3174 29.5574C81.7992 29.5842 81.2838 29.4653 80.8296 29.2144C80.3754 28.9634 80.0006 28.5904 79.7474 28.1374H79.7074V32.1574H78.0374V21.3574H79.6574V22.6974H79.6874C79.951 22.2463 80.332 21.8751 80.7899 21.6232C81.2477 21.3714 81.7652 21.2485 82.2874 21.2674C84.3574 21.2674 85.7174 22.8974 85.7174 25.4074ZM83.9974 25.4074C83.9974 23.7674 83.1474 22.6874 81.8474 22.6874C80.5674 22.6874 79.7074 23.7874 79.7074 25.4074C79.7074 27.0474 80.5674 28.1474 81.8474 28.1474C83.1474 28.1474 83.9974 27.0674 83.9974 25.4074ZM91.6574 26.3674C91.7774 27.4674 92.8574 28.1974 94.3274 28.1974C95.7474 28.1974 96.7574 27.4774 96.7574 26.4774C96.7574 25.6074 96.1474 25.0974 94.6974 24.7374L93.2474 24.3874C91.1874 23.8974 90.2374 22.9374 90.2374 21.3874C90.2374 19.4674 91.9174 18.1474 94.3074 18.1474C96.6774 18.1474 98.2974 19.4674 98.3474 21.3874H96.6574C96.5574 20.2774 95.6374 19.6074 94.2874 19.6074C92.9374 19.6074 92.0174 20.2874 92.0174 21.2774C92.0174 22.0574 92.6074 22.5274 94.0474 22.8774L95.2774 23.1774C97.5774 23.7174 98.5274 24.6374 98.5274 26.2774C98.5274 28.3474 96.8574 29.6574 94.2074 29.6574C91.7274 29.6574 90.0474 28.3774 89.9374 26.3674H91.6574ZM102.137 19.4274V21.3474H103.697V22.6674H102.137V27.1574C102.137 27.8574 102.457 28.1774 103.137 28.1774C103.317 28.1774 103.507 28.1574 103.687 28.1374V29.4474C103.387 29.5074 103.067 29.5374 102.757 29.5274C101.107 29.5274 100.457 28.9074 100.457 27.3274V22.6774H99.2774V21.3574H100.457V19.4374H102.147L102.137 19.4274ZM104.587 25.4074C104.587 22.8574 106.107 21.2474 108.457 21.2474C110.827 21.2474 112.327 22.8474 112.327 25.4074C112.327 27.9774 110.827 29.5674 108.457 29.5674C106.087 29.5674 104.587 27.9674 104.587 25.4074ZM110.627 25.4074C110.627 23.6574 109.817 22.6274 108.457 22.6274C107.107 22.6274 106.297 23.6674 106.297 25.4074C106.297 27.1674 107.097 28.1974 108.457 28.1974C109.817 28.1974 110.627 27.1674 110.627 25.4074ZM113.697 21.3574H115.297V22.7474H115.337C115.445 22.3143 115.699 21.9316 116.056 21.6639C116.413 21.3961 116.851 21.2596 117.297 21.2774C117.497 21.2774 117.687 21.2974 117.877 21.3374V22.8974C117.627 22.8274 117.377 22.7974 117.117 22.7974C116.752 22.7843 116.393 22.8891 116.092 23.0962C115.791 23.3033 115.565 23.6018 115.447 23.9474C115.377 24.1774 115.347 24.4274 115.377 24.6674V29.4774H113.697V21.3574ZM125.597 27.0974C125.367 28.5674 123.927 29.5774 122.077 29.5774C119.707 29.5774 118.237 27.9974 118.237 25.4574C118.237 22.9174 119.717 21.2574 122.007 21.2574C124.267 21.2574 125.687 22.8074 125.687 25.2574V25.8374H119.927V25.9374C119.9 26.2378 119.937 26.5406 120.037 26.8253C120.136 27.1101 120.295 27.3702 120.504 27.5882C120.712 27.8062 120.965 27.9769 121.245 28.0889C121.525 28.2009 121.826 28.2515 122.127 28.2374C122.521 28.2735 122.917 28.1822 123.255 27.977C123.593 27.7718 123.857 27.4635 124.007 27.0974H125.597ZM119.937 24.6774H124.017C124.034 24.4072 123.994 24.1364 123.901 23.8823C123.807 23.6282 123.662 23.3965 123.473 23.2017C123.285 23.007 123.059 22.8536 122.808 22.7513C122.557 22.6489 122.288 22.6 122.017 22.6074C121.467 22.6074 120.94 22.8252 120.55 23.2131C120.16 23.601 119.94 24.1275 119.937 24.6774Z" fill="black"/>
<rect x="0.5" y="52.5" width="161" height="43" rx="5.5" stroke="#1C1C1C"/>
<path d="M81.2023 74.9867C80.4902 74.9887 79.7948 75.2018 79.2039 75.599C78.613 75.9962 78.1531 76.5597 77.8825 77.2183C77.6118 77.8768 77.5426 78.6009 77.6834 79.2988C77.8242 79.9968 78.1689 80.6373 78.6738 81.1393C79.1786 81.6414 79.821 81.9825 80.5197 82.1194C81.2185 82.2564 81.9421 82.1831 82.5992 81.9088C83.2562 81.6345 83.8172 81.1715 84.2111 80.5784C84.605 79.9853 84.8142 79.2887 84.8122 78.5767C84.8204 78.1008 84.7325 77.6282 84.5539 77.1871C84.3752 76.746 84.1094 76.3454 83.7725 76.0094C83.4355 75.6733 83.0342 75.4086 82.5925 75.2312C82.1509 75.0538 81.6781 74.9672 81.2023 74.9767V74.9867ZM81.2023 80.7567C80.766 80.7868 80.3307 80.685 79.953 80.4644C79.5753 80.2439 79.2727 79.9149 79.0845 79.5201C78.8963 79.1254 78.8311 78.6831 78.8975 78.2509C78.9639 77.8186 79.1588 77.4163 79.4569 77.0962C79.7549 76.7762 80.1423 76.5532 80.5687 76.4562C80.9952 76.3592 81.441 76.3927 81.8481 76.5523C82.2553 76.712 82.605 76.9904 82.8518 77.3514C83.0987 77.7124 83.2312 78.1394 83.2323 78.5767C83.2457 78.854 83.2034 79.1312 83.1081 79.3919C83.0127 79.6526 82.8661 79.8916 82.6769 80.0947C82.4877 80.2979 82.2598 80.4611 82.0065 80.5748C81.7532 80.6885 81.4798 80.7504 81.2023 80.7567ZM73.3123 74.9767C72.6011 74.9806 71.9071 75.1951 71.3177 75.5931C70.7283 75.9911 70.27 76.5547 70.0006 77.2128C69.7312 77.871 69.6627 78.5942 69.8039 79.2912C69.945 79.9882 70.2895 80.6278 70.7937 81.1293C71.298 81.6307 71.9395 81.9716 72.6372 82.1089C73.335 82.2462 74.0578 82.1738 74.7145 81.9007C75.3711 81.6277 75.9322 81.1662 76.3269 80.5747C76.7216 79.9831 76.9322 79.2879 76.9323 78.5767C76.9391 78.1004 76.8499 77.6275 76.6702 77.1864C76.4904 76.7452 76.2237 76.3447 75.8859 76.0088C75.5481 75.6729 75.1462 75.4084 74.704 75.2311C74.2619 75.0538 73.7885 74.9673 73.3123 74.9767ZM73.3123 80.7567C72.876 80.7868 72.4407 80.685 72.063 80.4644C71.6853 80.2439 71.3827 79.9149 71.1945 79.5201C71.0063 79.1254 70.9411 78.6831 71.0075 78.2509C71.0739 77.8186 71.2688 77.4163 71.5669 77.0962C71.8649 76.7762 72.2523 76.5532 72.6787 76.4562C73.1052 76.3592 73.551 76.3927 73.9581 76.5523C74.3653 76.712 74.715 76.9904 74.9618 77.3514C75.2087 77.7124 75.3412 78.1394 75.3423 78.5767C75.3557 78.854 75.3134 79.1312 75.2181 79.3919C75.1227 79.6526 74.9761 79.8916 74.7869 80.0947C74.5977 80.2979 74.3698 80.4611 74.1165 80.5748C73.8632 80.6885 73.5898 80.7504 73.3123 80.7567ZM63.9422 76.0867V77.6067H67.5923C67.5357 78.3228 67.2398 78.9991 66.7523 79.5267C66.3854 79.9013 65.9439 80.1946 65.4563 80.3876C64.9688 80.5805 64.4461 80.6688 63.9222 80.6467C63.2611 80.6448 62.6105 80.4814 62.0268 80.1708C61.4432 79.8602 60.9442 79.4118 60.5733 78.8646C60.2024 78.3173 59.9707 77.6877 59.8984 77.0305C59.8262 76.3734 59.9155 75.7085 60.1586 75.0937C60.4017 74.4789 60.7913 73.9328 61.2935 73.5028C61.7957 73.0728 62.3953 72.7719 63.0402 72.6263C63.6851 72.4808 64.3558 72.4949 64.994 72.6675C65.6322 72.8401 66.2186 73.1659 66.7023 73.6167L67.7723 72.5467C67.2683 72.0482 66.67 71.6553 66.0124 71.3909C65.3548 71.1264 64.651 70.9958 63.9422 71.0067C63.1744 70.9504 62.4032 71.053 61.6768 71.3082C60.9504 71.5633 60.2844 71.9655 59.7204 72.4896C59.1564 73.0138 58.7066 73.6485 58.399 74.3543C58.0914 75.0601 57.9326 75.8218 57.9326 76.5917C57.9326 77.3616 58.0914 78.1233 58.399 78.8291C58.7066 79.5348 59.1564 80.1696 59.7204 80.6938C60.2844 81.2179 60.9504 81.6201 61.6768 81.8752C62.4032 82.1304 63.1744 82.233 63.9422 82.1767C64.6655 82.2059 65.3868 82.0821 66.0589 81.8133C66.731 81.5444 67.3387 81.1367 67.8423 80.6167C68.7307 79.6402 69.2041 78.3562 69.1623 77.0367C69.1659 76.7182 69.1391 76.4001 69.0823 76.0867H63.9422ZM102.282 77.2767C102.062 76.6266 101.65 76.0586 101.1 75.6479C100.55 75.2373 99.8881 75.0032 99.2022 74.9767C98.7388 74.9758 98.2802 75.0699 97.8545 75.2533C97.4289 75.4366 97.0454 75.7053 96.7277 76.0427C96.41 76.38 96.1649 76.779 96.0074 77.2148C95.85 77.6507 95.7835 78.1142 95.8122 78.5767C95.8055 79.3495 96.049 80.1037 96.5063 80.7266C96.9636 81.3496 97.6102 81.8078 98.3495 82.0329C99.0889 82.258 99.8811 82.2377 100.608 81.9753C101.335 81.7128 101.957 81.2222 102.382 80.5767L101.152 79.7367C100.969 80.0417 100.709 80.2936 100.399 80.4672C100.088 80.6409 99.738 80.7303 99.3822 80.7267C99.0151 80.7404 98.6524 80.6427 98.3418 80.4463C98.0312 80.25 97.7873 79.9643 97.6423 79.6267L102.452 77.6467L102.282 77.2767ZM97.3723 78.4767C97.3547 78.2134 97.3899 77.9492 97.4759 77.6997C97.5619 77.4502 97.6969 77.2204 97.873 77.0238C98.0491 76.8272 98.2627 76.6678 98.5013 76.555C98.7399 76.4421 98.9986 76.3781 99.2623 76.3667C99.5334 76.3521 99.803 76.4172 100.038 76.554C100.272 76.6909 100.462 76.8934 100.582 77.1367L97.3723 78.4767ZM93.4622 81.9567H95.0423V71.3867H93.4622V81.9567ZM90.8723 75.7867H90.8122C90.571 75.5254 90.2767 75.3188 89.9489 75.1808C89.6212 75.0428 89.2677 74.9766 88.9123 74.9867C87.9575 74.9867 87.0418 75.366 86.3667 76.0411C85.6915 76.7162 85.3122 77.6319 85.3122 78.5867C85.3122 79.5415 85.6915 80.4572 86.3667 81.1323C87.0418 81.8074 87.9575 82.1867 88.9123 82.1867C89.272 82.1939 89.629 82.1214 89.9574 81.9745C90.2859 81.8275 90.5778 81.6097 90.8122 81.3367H90.8723V81.8467C90.8723 83.2267 90.1422 83.9667 88.9522 83.9667C88.5562 83.9576 88.1718 83.831 87.8478 83.6032C87.5238 83.3753 87.2747 83.0563 87.1322 82.6867L85.7623 83.2567C86.0155 83.8932 86.4562 84.4377 87.0258 84.818C87.5955 85.1984 88.2673 85.3967 88.9522 85.3867C90.8022 85.3867 92.3422 84.2867 92.3422 81.6367V75.1867H90.8723V75.7867ZM89.0523 80.7567C88.4741 80.7567 87.9196 80.527 87.5108 80.1182C87.1019 79.7094 86.8723 79.1549 86.8723 78.5767C86.8723 77.9985 87.1019 77.444 87.5108 77.0352C87.9196 76.6264 88.4741 76.3967 89.0523 76.3967C89.3239 76.4079 89.5904 76.4739 89.836 76.5906C90.0815 76.7073 90.301 76.8724 90.4812 77.076C90.6614 77.2795 90.7987 77.5174 90.8848 77.7752C90.9709 78.0331 91.004 78.3057 90.9823 78.5767C91.0055 78.848 90.9733 79.1212 90.8877 79.3796C90.8022 79.6381 90.665 79.8765 90.4845 80.0804C90.304 80.2842 90.084 80.4493 89.8378 80.5656C89.5916 80.6818 89.3244 80.7469 89.0523 80.7567ZM109.702 71.3867H105.902V81.9567H107.492V77.9567H109.692C110.15 78.0005 110.612 77.9481 111.048 77.803C111.485 77.6578 111.886 77.423 112.226 77.1137C112.566 76.8044 112.838 76.4274 113.024 76.0069C113.21 75.5863 113.307 75.1316 113.307 74.6717C113.307 74.2118 113.21 73.7571 113.024 73.3365C112.838 72.916 112.566 72.539 112.226 72.2297C111.886 71.9204 111.485 71.6856 111.048 71.5404C110.612 71.3953 110.15 71.3429 109.692 71.3867H109.702ZM109.702 76.4567H107.492V72.8567H109.732C110.212 72.8567 110.673 73.0474 111.012 73.3868C111.352 73.7263 111.542 74.1867 111.542 74.6667C111.542 75.1467 111.352 75.6071 111.012 75.9466C110.673 76.286 110.212 76.4767 109.732 76.4767L109.702 76.4567ZM119.462 74.9467C118.888 74.913 118.317 75.0474 117.818 75.3333C117.319 75.6192 116.914 76.0444 116.652 76.5567L118.052 77.1467C118.192 76.893 118.403 76.6852 118.658 76.5486C118.914 76.4119 119.203 76.3522 119.492 76.3767C119.694 76.3517 119.898 76.3673 120.093 76.4225C120.288 76.4777 120.471 76.5714 120.629 76.6982C120.787 76.8249 120.919 76.9821 121.016 77.1605C121.112 77.3389 121.172 77.5348 121.192 77.7367V77.8367C120.679 77.5711 120.11 77.4338 119.532 77.4367C118.032 77.4367 116.482 78.2767 116.482 79.8167C116.496 80.1453 116.576 80.4678 116.717 80.7647C116.859 81.0616 117.059 81.3268 117.306 81.5445C117.552 81.7621 117.84 81.9277 118.152 82.0312C118.465 82.1346 118.794 82.1739 119.122 82.1467C119.518 82.1684 119.913 82.0845 120.267 81.9036C120.62 81.7226 120.918 81.451 121.132 81.1167H121.182V81.9567H122.702V77.8867C122.702 76.0367 121.302 74.9667 119.502 74.9667L119.462 74.9467ZM119.262 80.7467C118.762 80.7467 118.032 80.4767 118.032 79.8467C118.032 78.9967 118.932 78.7067 119.732 78.7067C120.232 78.7067 120.732 78.8167 121.162 79.0667C121.111 79.5275 120.895 79.9541 120.552 80.2669C120.21 80.5797 119.766 80.7574 119.302 80.7667L119.272 80.7367L119.262 80.7467ZM128.262 75.1867L126.442 79.7767H126.392L124.512 75.1867H122.822L125.642 81.6067L124.042 85.1667H125.732L130.002 75.1867H128.252H128.262ZM114.042 81.9567H115.612V71.3867H114.042V81.9567Z" fill="black"/>
<path d="M32.3822 62.957C32.1122 63.287 31.9822 63.717 32.0022 64.137V82.857C31.9822 83.287 32.1222 83.717 32.4022 84.037L32.4622 84.107L42.9222 73.627V73.367L32.4422 62.897L32.3822 62.957Z" fill="url(#paint0_linear_6778_10830)"/>
<path d="M46.3922 77.117L42.9222 73.617V73.367L46.3922 69.877L46.4722 69.927L50.6222 72.277C51.8022 72.947 51.8022 74.047 50.6222 74.727L46.4822 77.077L46.3822 77.117H46.3922Z" fill="url(#paint1_linear_6778_10830)"/>
<path d="M46.5023 77.0671L42.9223 73.4971L32.3823 84.0371C32.6211 84.2498 32.9268 84.3722 33.2464 84.3831C33.566 84.3941 33.8794 84.2929 34.1323 84.0971L46.4923 77.0671" fill="url(#paint2_linear_6778_10830)"/>
<path d="M46.5023 69.9269L34.1323 62.9069C33.8814 62.7078 33.5683 62.6037 33.2481 62.6129C32.928 62.622 32.6214 62.7438 32.3823 62.9569L42.9223 73.4869L46.4923 69.9169L46.5023 69.9269Z" fill="url(#paint3_linear_6778_10830)"/>
<path opacity="0.2" d="M46.3923 76.9868L34.1323 83.9868C33.8882 84.1733 33.5895 84.2744 33.2823 84.2744C32.9751 84.2744 32.6764 84.1733 32.4323 83.9868L32.3823 84.0468L32.4423 84.1068C32.6855 84.2909 32.9822 84.3906 33.2873 84.3906C33.5923 84.3906 33.889 84.2909 34.1323 84.1068L46.4923 77.0768L46.3923 77.0068V76.9868Z" fill="black"/>
<path opacity="0.12" d="M32.3822 83.9271C32.1067 83.5904 31.9707 83.161 32.0022 82.7271V82.8571C31.9822 83.2871 32.1222 83.7171 32.4022 84.0371L32.4622 83.9871L32.3822 83.9271ZM50.6222 74.5971L46.3922 76.9971L46.4722 77.0671L50.6222 74.7171C50.8683 74.6138 51.0819 74.4458 51.2403 74.2311C51.3988 74.0163 51.4962 73.7627 51.5222 73.4971C51.4693 73.7383 51.3602 73.9636 51.2038 74.1547C51.0475 74.3459 50.8482 74.4974 50.6222 74.5971Z" fill="black"/>
<path opacity="0.25" d="M34.1323 63.0271L50.6223 72.3871C50.8478 72.4874 51.0466 72.6392 51.2029 72.8302C51.3592 73.0212 51.4686 73.2462 51.5223 73.4871C51.4962 73.2215 51.3988 72.9679 51.2403 72.7531C51.0819 72.5383 50.8683 72.3704 50.6223 72.2671L34.1223 62.8971C32.9623 62.2271 32.0023 62.7871 32.0023 64.1371V64.2671C32.0023 62.9171 32.9523 62.3571 34.1323 63.0271Z" fill="white"/>
<defs>
<linearGradient id="paint0_linear_6778_10830" x1="41.9922" y1="63.947" x2="27.7922" y2="78.147" gradientUnits="userSpaceOnUse">
<stop stop-color="#00A0FF"/>
<stop offset="0.01" stop-color="#00A1FF"/>
<stop offset="0.26" stop-color="#00BEFF"/>
<stop offset="0.51" stop-color="#00D2FF"/>
<stop offset="0.76" stop-color="#00DFFF"/>
<stop offset="1" stop-color="#00E3FF"/>
</linearGradient>
<linearGradient id="paint1_linear_6778_10830" x1="52.1722" y1="73.497" x2="31.7022" y2="73.497" gradientUnits="userSpaceOnUse">
<stop stop-color="#FFE000"/>
<stop offset="0.41" stop-color="#FFBD00"/>
<stop offset="0.78" stop-color="#FFA500"/>
<stop offset="1" stop-color="#FF9C00"/>
</linearGradient>
<linearGradient id="paint2_linear_6778_10830" x1="44.5523" y1="75.4471" x2="25.2923" y2="94.6971" gradientUnits="userSpaceOnUse">
<stop stop-color="#FF3A44"/>
<stop offset="1" stop-color="#C31162"/>
</linearGradient>
<linearGradient id="paint3_linear_6778_10830" x1="29.7223" y1="56.7269" x2="38.3223" y2="65.3269" gradientUnits="userSpaceOnUse">
<stop stop-color="#32A071"/>
<stop offset="0.07" stop-color="#2DA771"/>
<stop offset="0.48" stop-color="#15CF74"/>
<stop offset="0.8" stop-color="#06E775"/>
<stop offset="1" stop-color="#00F076"/>
</linearGradient>
</defs>
</svg>
