<svg width="24" height="24" viewBox="0 0 24 24" fill="none" xmlns="http://www.w3.org/2000/svg">
<path fill-rule="evenodd" clip-rule="evenodd" d="M23.157 0.231617L0.388601 8.83794C0.335475 8.86294 0.29056 8.90255 0.259101 8.95213C0.227642 9.00171 0.210938 9.05922 0.210938 9.11794C0.210938 9.17665 0.227642 9.23416 0.259101 9.28374C0.29056 9.33332 0.335475 9.37293 0.388601 9.39794L10.1297 13.5685C10.1661 13.5833 10.1993 13.6053 10.2271 13.6331C10.255 13.661 10.2769 13.6941 10.2918 13.7306L14.4623 23.4716C14.4873 23.5247 14.5269 23.5697 14.5765 23.6011C14.6261 23.6326 14.6836 23.6493 14.7423 23.6493C14.801 23.6493 14.8585 23.6326 14.9081 23.6011C14.9577 23.5697 14.9973 23.5247 15.0223 23.4716L23.5402 0.614775C23.5616 0.561213 23.5669 0.502536 23.5553 0.44602C23.5437 0.389503 23.5158 0.337632 23.475 0.296836C23.4342 0.256041 23.3823 0.228116 23.3258 0.216523C23.2693 0.204929 23.2106 0.210177 23.157 0.231617Z" fill="white"/>
</svg>
