<svg width="20" height="21" viewBox="0 0 20 21" fill="none" xmlns="http://www.w3.org/2000/svg">
<path d="M12.1126 0.985374C11.7426 0.833374 11.2726 0.833374 10.3336 0.833374C9.39463 0.833374 8.92563 0.833374 8.55463 0.985374C8.06208 1.18758 7.67001 1.57714 7.46463 2.06837C7.37063 2.29137 7.33463 2.55237 7.31963 2.93137C7.31296 3.20598 7.23636 3.47434 7.09708 3.71109C6.95779 3.94784 6.76042 4.14516 6.52363 4.28437C6.28237 4.41848 6.01117 4.48952 5.73515 4.49092C5.45914 4.49232 5.18723 4.42403 4.94463 4.29237C4.60663 4.11437 4.36163 4.01637 4.11963 3.98437C3.59018 3.91486 3.0547 4.05717 2.62963 4.38037C2.31163 4.62237 2.07663 5.02637 1.60763 5.83337C1.13763 6.64037 0.903629 7.04337 0.850629 7.43837C0.780629 7.96437 0.924629 8.49637 1.25063 8.91737C1.39863 9.10937 1.60763 9.27037 1.93063 9.47237C2.40763 9.76937 2.71363 10.2754 2.71363 10.8334C2.71363 11.3914 2.40763 11.8974 1.93163 12.1934C1.60763 12.3964 1.39863 12.5574 1.24963 12.7494C1.08871 12.9573 0.970598 13.1951 0.902113 13.4489C0.833628 13.7028 0.816129 13.9677 0.850629 14.2284C0.903629 14.6224 1.13763 15.0264 1.60763 15.8334L1.61324 15.843C2.0795 16.6436 2.3129 17.0443 2.62963 17.2864C3.05363 17.6094 3.58963 17.7514 4.11963 17.6824C4.36163 17.6504 4.60663 17.5524 4.94463 17.3744C5.18735 17.2425 5.45944 17.1742 5.73566 17.1756C6.01187 17.177 6.28325 17.2481 6.52463 17.3824C7.01063 17.6624 7.29863 18.1774 7.31963 18.7354C7.33463 19.1154 7.37063 19.3754 7.46463 19.5984C7.66863 20.0884 8.06063 20.4784 8.55463 20.6814C8.92463 20.8334 9.39463 20.8334 10.3336 20.8334C11.2726 20.8334 11.7426 20.8334 12.1126 20.6814C12.6052 20.4792 12.9972 20.0896 13.2026 19.5984C13.2966 19.3754 13.3326 19.1154 13.3476 18.7354C13.3676 18.1774 13.6566 17.6614 14.1436 17.3824C14.3849 17.2483 14.6561 17.1772 14.9321 17.1758C15.2081 17.1744 15.48 17.2427 15.7226 17.3744C16.0606 17.5524 16.3056 17.6504 16.5476 17.6824C17.0776 17.7524 17.6136 17.6094 18.0376 17.2864C18.3556 17.0444 18.5906 16.6404 19.0596 15.8334C19.5296 15.0264 19.7636 14.6234 19.8166 14.2284C19.851 13.9676 19.8333 13.7027 19.7647 13.4488C19.696 13.195 19.5777 12.9572 19.4166 12.7494C19.2686 12.5574 19.0596 12.3964 18.7366 12.1944C18.2596 11.8974 17.9536 11.3914 17.9536 10.8334C17.9536 10.2754 18.2596 9.76937 18.7356 9.47337C19.0596 9.27037 19.2686 9.10937 19.4176 8.91737C19.5785 8.70943 19.6967 8.47166 19.7651 8.2178C19.8336 7.96395 19.8511 7.69903 19.8166 7.43837C19.7636 7.04437 19.5296 6.64037 19.0596 5.83337L19.054 5.82372C18.5878 5.02316 18.3544 4.6224 18.0376 4.38037C17.6126 4.05717 17.0771 3.91486 16.5476 3.98437C16.3056 4.01637 16.0606 4.11437 15.7226 4.29237C15.4799 4.4242 15.2078 4.49259 14.9316 4.49119C14.6554 4.48979 14.384 4.41865 14.1426 4.28437C13.906 4.14503 13.7089 3.94767 13.5697 3.71093C13.4306 3.47418 13.3542 3.20588 13.3476 2.93137C13.3326 2.55137 13.2966 2.29137 13.2026 2.06837C13.101 1.82511 12.9524 1.60426 12.7654 1.41843C12.5783 1.23261 12.3565 1.08545 12.1126 0.985374ZM10.3336 13.8334C12.0036 13.8334 13.3566 12.4904 13.3566 10.8334C13.3566 9.17637 12.0026 7.83337 10.3336 7.83337C8.66363 7.83337 7.31063 9.17637 7.31063 10.8334C7.31063 12.4904 8.66463 13.8334 10.3336 13.8334Z" stroke="#1C1C1C"/>
</svg>
