<svg width="13" height="12" viewBox="0 0 13 12" fill="none" xmlns="http://www.w3.org/2000/svg">
<path d="M5.97531 0.28744C6.01588 0.201504 6.08004 0.128869 6.16031 0.0779997C6.24059 0.0271304 6.33366 0.00012207 6.4287 0.00012207C6.52373 0.00012207 6.61681 0.0271304 6.69708 0.0779997C6.77735 0.128869 6.84151 0.201504 6.88209 0.28744L8.4951 3.80144L12.4128 4.21626C12.8387 4.26083 13.011 4.77679 12.693 5.05791L9.77128 7.64369L10.5795 11.414C10.6669 11.8236 10.2178 12.1425 9.8467 11.9342L6.4287 10.0186L3.00983 11.9342C2.63872 12.1433 2.18962 11.8236 2.27704 11.414L3.08611 7.64369L0.163496 5.05791C-0.153621 4.77679 0.0177937 4.26083 0.443759 4.21626L4.36058 3.80144L5.97445 0.28744H5.97531Z" fill="#FFC405"/>
</svg>
