<svg width="20" height="20" viewBox="0 0 20 20" fill="none" xmlns="http://www.w3.org/2000/svg">
<path d="M3.33398 5C3.43473 5 3.5674 5 5.00065 5M16.6673 5C15.9308 5 15.9141 5 15.0007 5M5.00065 5V4.5C5.00065 3.39543 5.89608 2.5 7.00065 2.5H13.0007C14.1052 2.5 15.0007 3.39543 15.0007 4.5V5M5.00065 5C7.59102 5 11.7076 5 15.0007 5M5.00065 7.5V15.9167C5.00065 17.0212 5.89608 17.9167 7.00065 17.9167H13.0007C14.1052 17.9167 15.0007 17.0212 15.0007 15.9167V7.5M8.33398 9.16667V15M11.6673 9.16667V15" stroke="#9C9C9C" stroke-width="1.5" stroke-linecap="round" stroke-linejoin="round"/>
</svg>
