<svg width="12" height="12" viewBox="0 0 12 12" fill="none" xmlns="http://www.w3.org/2000/svg">
<path d="M4.31241 11.175C4.41024 11.1622 4.50962 11.1689 4.60485 11.1947C4.70009 11.2204 4.78931 11.2647 4.86741 11.325L5.54241 11.85C5.67355 11.9509 5.83441 12.0057 5.99991 12.0057C6.16541 12.0057 6.32626 11.9509 6.45741 11.85L7.13241 11.325C7.21051 11.2647 7.29973 11.2204 7.39496 11.1947C7.4902 11.1689 7.58958 11.1622 7.68741 11.175L8.52741 11.2875C8.6898 11.3087 8.85469 11.2763 8.99689 11.195C9.13909 11.1138 9.25078 10.9882 9.31491 10.8375L9.64491 10.05C9.72101 9.86671 9.86665 9.72108 10.0499 9.64498L10.8374 9.31498C10.9881 9.25085 11.1137 9.13916 11.1949 8.99696C11.2762 8.85476 11.3087 8.68987 11.2874 8.52748L11.1824 7.68748C11.1697 7.58965 11.1764 7.49027 11.2021 7.39503C11.2279 7.2998 11.2721 7.21057 11.3324 7.13248L11.8424 6.45748C11.9434 6.32633 11.9981 6.16548 11.9981 5.99998C11.9981 5.83447 11.9434 5.67362 11.8424 5.54248L11.3249 4.86748C11.2646 4.78938 11.2204 4.70016 11.1946 4.60492C11.1689 4.50968 11.1622 4.41031 11.1749 4.31248L11.2874 3.47248C11.3104 3.3089 11.2788 3.14231 11.1974 2.99856C11.116 2.85481 10.9895 2.74194 10.8374 2.67748L10.0499 2.35498C9.86665 2.27887 9.72101 2.13324 9.64491 1.94998L9.31491 1.16248C9.25078 1.01177 9.13909 0.886203 8.99689 0.804945C8.85469 0.723688 8.6898 0.691212 8.52741 0.712476L7.68741 0.817476C7.58888 0.832276 7.4884 0.827297 7.39182 0.80283C7.29524 0.778363 7.2045 0.734899 7.12491 0.674976L6.44991 0.164976C6.31876 0.0640201 6.15791 0.00927734 5.99241 0.00927734C5.82691 0.00927734 5.66605 0.0640201 5.53491 0.164976L4.87491 0.674976C4.79681 0.735252 4.70759 0.779527 4.61235 0.805267C4.51712 0.831006 4.41774 0.837704 4.31991 0.824976L3.47241 0.704976C3.31002 0.683712 3.14513 0.716188 3.00293 0.797445C2.86073 0.878703 2.74903 1.00427 2.68491 1.15498L2.35491 1.94998C2.2788 2.13324 2.13317 2.27887 1.94991 2.35498L1.16241 2.67748C1.01032 2.74194 0.883773 2.85481 0.802404 2.99856C0.721035 3.14231 0.689399 3.3089 0.712408 3.47248L0.817408 4.31248C0.830136 4.41031 0.823438 4.50968 0.797698 4.60492C0.771959 4.70016 0.727683 4.78938 0.667408 4.86748L0.157408 5.54248C0.0564518 5.67362 0.00170898 5.83447 0.00170898 5.99998C0.00170898 6.16548 0.0564518 6.32633 0.157408 6.45748L0.674908 7.13248C0.735183 7.21057 0.779459 7.2998 0.805198 7.39503C0.830938 7.49027 0.837636 7.58965 0.824908 7.68748L0.712408 8.52748C0.691143 8.68987 0.72362 8.85476 0.804877 8.99696C0.886134 9.13916 1.0117 9.25085 1.16241 9.31498L1.94991 9.64498C2.13741 9.71998 2.27991 9.86998 2.35491 10.05L2.67741 10.83C2.74062 10.9835 2.85295 11.1116 2.99682 11.1944C3.14068 11.2772 3.30795 11.3099 3.47241 11.2875L4.31241 11.1825" fill="#1C1C1C"/>
<path d="M8.7225 3.92247C8.87479 4.04837 8.97124 4.22928 8.9909 4.42588C9.01056 4.62249 8.95184 4.81891 8.8275 4.97247L6.0525 8.34747C5.98537 8.43018 5.90139 8.49763 5.80615 8.54535C5.71092 8.59306 5.60661 8.61994 5.50017 8.6242C5.39374 8.62846 5.28761 8.60999 5.18887 8.57004C5.09013 8.53008 5.00103 8.46955 4.9275 8.39247L3.2025 6.59247C3.06525 6.44826 2.99091 6.25543 2.99584 6.05641C3.00076 5.85739 3.08454 5.66847 3.22875 5.53122C3.37296 5.39397 3.56579 5.31963 3.76481 5.32456C3.96384 5.32948 4.15275 5.41326 4.29 5.55747L5.43 6.74247L7.6725 4.01997C7.79946 3.8688 7.98091 3.77379 8.17747 3.75553C8.37404 3.73728 8.56988 3.79726 8.7225 3.92247Z" fill="white"/>
</svg>
